# xmcd
# 
# Track frame offsets:
#     180
#     10959
#     23820
#     33982
#     45907
#     59789
#     71995
#     83912
#     96233
#     109286
#     121737
#     134778
#     148282
#     163583
#     176785
# 
# Disc length: 2570
# 
# Revision: 0
# Processed by: cddbd v1.5.2PL0 Copyright (c) Steve Scherf et al.
# Submitted via: Kool Media Converter v1.7.0
# 
DISCID=de0a080f
DTITLE=Los Huracanes del Norte - Exitos, Vol. 3
DYEAR=1995
DGENRE=Latin
TTITLE0=Entre Pase y Pase
TTITLE1=Regreso el Vaquero
TTITLE2=Cerveza
TTITLE3=Clave Privada
TTITLE4=Muchos Casos de Vino
TTITLE5=Informe del Dea
TTITLE6=Tres Sinaloenses
TTITLE7=Coqueta
TTITLE8=Que Bonito
TTITLE9=Compadre
TTITLE10=Ornelas
TTITLE11=Consejo de un Padre
TTITLE12=30 Dias
TTITLE13=Sesenta Mil Nuevos Pesos
TTITLE14=Profeta
EXTD=
EXTT0=
EXTT1=
EXTT2=
EXTT3=
EXTT4=
EXTT5=
EXTT6=
EXTT7=
EXTT8=
EXTT9=
EXTT10=
EXTT11=
EXTT12=
EXTT13=
EXTT14=
PLAYORDER=
